/* XPM */
static char *_aecd43d7b8f4bd39be984a4f6eaac48KoKSOj70LT5PMqCN[] = {
/* columns rows colors chars-per-pixel */
"64 64 253 2 ",
"   c #0B0802",
".  c #140D07",
"X  c #0D1106",
"o  c #13140D",
"O  c #171809",
"+  c #151512",
"@  c #161A13",
"#  c #1B1C14",
"$  c #1C1D19",
"%  c #1B1414",
"&  c #130D10",
"*  c #24140B",
"=  c #221E1A",
"-  c #261B15",
";  c #331E17",
":  c #1A2307",
">  c #1D2215",
",  c #1E221B",
"<  c #1E2C17",
"1  c #1D301A",
"2  c #28270B",
"3  c #222415",
"4  c #22231D",
"5  c #232C1C",
"6  c #2A2B1C",
"7  c #292619",
"8  c #36291D",
"9  c #25331D",
"0  c #2B341D",
"q  c #2C3B1D",
"w  c #263616",
"e  c #333A1B",
"r  c #273509",
"t  c #1C1E21",
"y  c #261B21",
"u  c #1F2524",
"i  c #252521",
"p  c #292622",
"a  c #262922",
"s  c #2B2B24",
"d  c #2D2D2A",
"f  c #29272A",
"g  c #312E2B",
"h  c #352924",
"j  c #263321",
"k  c #2A3523",
"l  c #2C3B23",
"z  c #2E312A",
"x  c #2C3A2A",
"c  c #263825",
"v  c #313425",
"b  c #323B25",
"n  c #33332C",
"m  c #333C2B",
"M  c #3A3C2E",
"N  c #3A3528",
"B  c #2B3335",
"V  c #353532",
"C  c #3A3633",
"Z  c #363933",
"A  c #3B3B34",
"S  c #3C3C3A",
"D  c #34383A",
"F  c #322F30",
"G  c #442D1D",
"H  c #452D23",
"J  c #46372A",
"K  c #433C34",
"L  c #413D3B",
"P  c #4A3C35",
"I  c #523E30",
"U  c #35431B",
"Y  c #374318",
"T  c #2E461C",
"R  c #334223",
"E  c #35432B",
"W  c #3A432D",
"Q  c #3A4927",
"!  c #3B4232",
"~  c #3D4537",
"^  c #364A2A",
"/  c #464A29",
"(  c #435629",
")  c #434335",
"_  c #44433D",
"`  c #4A453C",
"'  c #49493D",
"]  c #474934",
"[  c #564937",
"{  c #475436",
"}  c #555332",
"|  c #65503B",
" . c #536538",
".. c #57602E",
"X. c #383E45",
"o. c #433E41",
"O. c #3D4244",
"+. c #3C4958",
"@. c #3F4D61",
"#. c #444442",
"$. c #4A4542",
"%. c #474A44",
"&. c #4B4A44",
"*. c #4C4D4A",
"=. c #44474C",
"-. c #524D4B",
";. c #554B45",
":. c #535245",
">. c #54534C",
",. c #5B584A",
"<. c #454C54",
"1. c #4D5253",
"2. c #49515A",
"3. c #545453",
"4. c #5B5553",
"5. c #5B5A54",
"6. c #5C5C5B",
"7. c #555959",
"8. c #4D524B",
"9. c #675848",
"0. c #625C54",
"q. c #635A57",
"w. c #6B5048",
"e. c #5B6944",
"r. c #5E605D",
"t. c #6B6749",
"y. c #776848",
"u. c #64625C",
"i. c #6B645D",
"p. c #666356",
"a. c #746959",
"s. c #787358",
"d. c #6C784B",
"f. c #4D5764",
"g. c #535B64",
"h. c #575D66",
"j. c #675E62",
"k. c #5C636B",
"l. c #5B6264",
"z. c #5A6676",
"x. c #6B6563",
"c. c #6C6B64",
"v. c #63666B",
"b. c #686867",
"n. c #726C6B",
"m. c #756967",
"M. c #74726C",
"N. c #7B756C",
"B. c #787767",
"V. c #676D74",
"C. c #796C72",
"Z. c #6B7279",
"A. c #7C7472",
"S. c #7D7B7B",
"D. c #767777",
"F. c #6F716E",
"G. c #84765A",
"H. c #836856",
"J. c #86776A",
"K. c #837474",
"L. c #847A74",
"P. c #8A7B75",
"I. c #847C7A",
"U. c #8B7C7B",
"Y. c #867679",
"T. c #917B7A",
"R. c #8D766D",
"E. c #A27C72",
"W. c #815C4E",
"Q. c #738655",
"!. c #7E807B",
"~. c #8C8658",
"^. c #958A68",
"/. c #85837C",
"(. c #8C817C",
"). c #898677",
"_. c #978979",
"`. c #91916A",
"'. c #A79A77",
"]. c #A99671",
"[. c #ADA678",
"{. c #A2B159",
"}. c #767C85",
"|. c #6A758B",
" X c #8B7B81",
".X c #7C8389",
"XX c #768396",
"oX c #7E8DA2",
"OX c #858484",
"+X c #8C8B83",
"@X c #888889",
"#X c #948885",
"$X c #979489",
"%X c #868B94",
"&X c #8C9399",
"*X c #949393",
"=X c #9B9B9B",
"-X c #979899",
";X c #998F90",
":X c #A79B87",
">X c #A29B95",
",X c #A7A588",
"<X c #B5A789",
"1X c #A8A69B",
"2X c #B8AB96",
"3X c #BAB698",
"4X c #999DA4",
"5X c #8A96AC",
"6X c #9CA2A8",
"7X c #99A4B6",
"8X c #A7A7A8",
"9X c #B6B3A7",
"0X c #A6ADB4",
"qX c #ADB2B8",
"wX c #B6B7B7",
"eX c #B2ABA6",
"rX c #9FA098",
"tX c #C7B898",
"yX c #C8BCA5",
"uX c #D2BEA3",
"iX c #D0C398",
"pX c #D6C6A9",
"aX c #C7C4B8",
"sX c #D6CAAF",
"dX c #E3D7B6",
"fX c #E6E0BE",
"gX c #9DACC5",
"hX c #A9B5C6",
"jX c #B7BEC7",
"kX c #A9B6D2",
"lX c #BCC3CA",
"zX c #B9C2D6",
"xX c #BECEE7",
"cX c #C4C6C9",
"vX c #DAD7CD",
"bX c #C8CDD4",
"nX c #CCD1D7",
"mX c #D5D8DB",
"MX c #D1CDC3",
"NX c #E6DCC4",
"BX c #E2DFD7",
"VX c #EDE6D5",
"CX c #D8DCE2",
"ZX c #C9D5F2",
"AX c #DCE2E9",
"SX c #DEE6F4",
"DX c #E7E8E9",
"FX c #E6ECF3",
"GX c #E9F2FA",
"HX c #F5FCFF",
"JX c #FDFEFE",
"KX c #F8F9F6",
"LX c #F7F5E9",
/* pixels */
"ZX|.|.|.XX7XoX+.+.z.0X.Xf.k.z.V.O.jXGX}.Z.0X&XV.%XlXAX0X6XZ.lXHXJXJXJXJXJXJXJXJXJXJXJXJXJXJXJXbXGX0X|.qX|.D.8XZ.@X0XLX9X-XDXvXvX",
"SXzXgX|.@.oXz.+.+.z.&XO.g.SX&X1.=.<.4X&XV.oX|..Xf.}.7X.X6X-XFXHXJXJXJXJXJXJXJXJXJXJXJXJXJXJXJXnXFXAX%Xk.h.h.f.1.%X*XcXcX1XBXaX9X",
"5XkXgXoXz.+.z.f.2.f.k.+.g.&XoXqX<.h.4Xg.X.5X.Xg.2.+.Z.&X.X%XGXJXJXJXJXJXJXJXJXJXJXJXJXJXJXJXJXAXcXHXCXV.g.h.v.V.V.D.=X1X;XLXMXvX",
"ZXgXoX5XkX@.|.z.f.l.f.k.V.!..XwXX.%X4XD.=.4XlXZ.2.7.&X6X&XcXHXJXJXJXJXJXJXJXJXJXJXJXJXJXJXJXJXKXcXkXnXGXDXk.&XnXD.1X8X8X$XwXaXBX",
"SXgXxXgX7Xz.+.f.f.f.}.+.k.V.7.F.7.v.cX4X!.6XlX4X0X6X6X&XqXGXJXHXJXJXJXJXJXKXJXKXKXJXJXJXJXJXJXJXbXV.}.nX0Xk.4XqXOXcXJXvXS.>XvXvX",
"SXxXoXhX5XXX+.+.f.h.<.f.Z.Z..XZ.D V.C.g.l.GXmXnXnX%XqXmXqXmXAXHXJXKXJXJXJXJXJXJXJXJXJXJXJXJXJXJXHXjX}.|.f.V.4XwXCXD.wXDXwX1XMXLX",
"GXgX5Xf.|.oXzXXX+.z.+.O.&X5XF.7.=.7.%.1.2.Z.GXnX&XF.wXSX.X&XmXHXJXJXJXJXJXKXJXJXJXJXJXJXJXJXJXJXGXJX}.h.g.=.Z.%X*XF.S.*X8XaXLXVX",
"HXHXGXhXlXZXlXoX|.2.g.V.6XqXZ.D B =.D.D.k.&XmX!.bXCXHX0XV.!.nXHXJXJXJXJXJXJXJXJXJXJXKXJXJXJXJXJXHXHX%Xo.v.Z.@X3.%.u.c.).rX+XaXLX",
"HXHXJXHXHXHXSX0XbXf.|.6XZ.%X}.<.=.v.Z.*.#.D.&X!.0XXXlX.XZ.lXHXHXJXJXJXJXJXJXJXJXJXHXKXJXJXJXJXJXGXFX4X}.FXqXl.OX+X+Xu.$XMX*XBXKX",
"JXHXJXHXJXGXFX7XFXgX}.v.f.2.<.V.=.Z.0Xh.V.4Xk.!..X!.l.l.6XFXnXFXJXJXJXJXHXJXJXHXJXJXJXHXJXJXJXHXFXcXwXb.nX8X=X9XDXrXF.).MXeXLXKX",
"JXJXJXJXDXjXjX}.jXkXhX2.V.}.V.B =.7..XV.8XD.lXGX!.^ O.g.&X=XjXKXHXJXJXJXHXJXHXHXJXHXJXHXJXJXKXDXbXJXGXCX;XqXcX+X/.5.u./.1XwXsXvX",
"KXJXHXJXHXCXcXGXFX<.h.&X.X6Xl.2.D *.l.1..X-XcX4X2.2.r.v.7.-XjXFXFXDXDXDXDXCXmXCXmXvXnXjXcXcXwXqXqXwXwXeX*X4.>.3.~ 5.N.1X1X$X_.rX",
"AXAXFXAXAXFXCXmXbXv.X.k.7.O.O.l.1.V 3.*.b.8.1.1.~ g..Xc.1.V.!.8XeX8X8X8X8X0X8X8X8X8X8X=X4X8X>X=X>X8XS.3.6.) q.$.>.u.).$X-XB.M.$X",
"4X4X-X4X6X&X%X2.<.1.3.#.O.1.#.S %.V $.#._ 3.~ %.E O.l.Q.!.!.!.*X4X=X=X4X>X4X8X4X6X8X4X&X;X=X4X8X*X6.*.S 4.c.L ,.i.M.N.).).p.B./.",
"%X%X XXX%X@X%X2.O.8.*.#._ *._ 5._ V Z S x >.%._ >.r.%.r./.B.x./.>X=X=X*X*X*X*X X}.@X@X X+X@X@XI.3.L -.u.M.c.` p.i.p.i.m.p.m.i.A.",
"%X4X}.}.4X*X=X-XOXD.3.$.&.>.n $.S d Z A ! 5.' { 8.~ ,.8.M.L.5.u.A.I. XOX X%XOXD.A. X#X*XqXeXeX=Xu.#.n.b.m.5.-.x.M.,.p.0.c.B.p.M.",
"}. X3.1.D.}.D.b.F.7.&.S g d n C d A n d _ &._ ' Z A ! %././.B.L.c.@X-X X!.rXc.).;X;XY.#XlX&XV.!.7.%.8.*.q.q.*.q.3.>.5.u.x.r.5.+X",
"#X;Xn.L C.C.b.7.S g C $.u.6.>.*._ V >.p.` M ,.5._ ~ 5.p.>.p.:.N.c.+X6.o.5.5.' M.U.K.Y.I.6Xl.B D 8.A S S S $.$.L L $.#.>.8.r.r.@X",
"I.M.S.6.o.S L -.$.g n ) b.4.#.V n n K _ >.,.>.:.' &.>.K m K :.0.,.;.-.-.' 0._ B._.T.T.Y.0Xl.~ %.#.V V L C L _ A ~ :.5.8.r.wXF.D.",
">.u.A K F F o.3.L S _ _ >.A n n A p &.[ K N p [ _ A ` _ ` :.p.0.p.0.4.9.0.P :.U.U.T.U./.qXl.A K O.~ O.#.$._ L L $.=X$Xr.c.$Xr./.",
"x.N.-.&.q.o.o.q.x.-.$.` >.' _ A >.h ,.;.N ` :.` ' ' ` :.p.0.J i.R.L.;.m.;XH.U.U.T.(.U.U.}.S K N Z S #.S A #.! Z 0.$XB.r.c.!.r.OX",
"i.i.4.n.n.L 4.o.A g Z v ) n A N V V a.m.0.P 9.) &.&.) _ 0.0.;.a._.L.j. XR.#XT.#X XI.;.4.C p 8 7 M V Z S z n z ] :.e.).B.).9Xb.F.",
"q.m.n.A.n.m.C.$.K A C 6 Z n V V V h ) :.` K 0.) &.i._ &.4.0.` ,.T.C.K.K.T.T.T.D.n.n.q.d g h _.#X$.z D D V n 5.B.p.$XaXr._.-Xb.b.",
";.:.4.q.n.S.n.d s L Z n n s 4 s V N p N h M ` *.$.) *.&.u.;.` i./.C.K.m.Y.U. XY.L.D.C.*.g q.sXsX4.4 V V D ,.wX1Xr.2XNX!.u.S.u.b.",
"$.&.` A  X-.C o.F C g d V g n V g V n n C _ _ p Z *.D _ A h -.4.c.S.OXOXU. X;X4.1.=XC.-.L Y._._.K p 4 S ~ r.DXaX,.,XLX9X+XD.b.6.",
"S.A.A.n.o.y S S F h n g g i d d F d s V A Z n A #.>.%.Z h._ M f 7.6.k.&XA.C.q.D g. XV.f x.#X9.I - . n $.%.r.).S.' 1XaX)._.M.I.h.",
"OX4.-.7.o.f f V d p $.n $ f g F f z D _ z _ %.7.%.z O.#.O.V s V Z u B l.L 4.C o.<.D o.f.Y.#XyXw.J a.#Xg >.%.m ` ,.r._.,.u.x.S.7.",
"L = C F f F g F V >.S # p $.3.D V d *.-.i _ %., O.D O.#.d *.C n B f B B g q.C D 3.<.v. X X X2Xs.J.yX).N &.S +XLX$Xs.9XB.) $.3.b.",
"c.c.b.b.D n g p V $.n 7 *.#.#.C d d V p d V d f f B B j f S C = d O.B ~ C ;.;.x. X%X X XC.;.I ].uX].[ N N >.-XvX9Xs.)._.;.&.3.3.",
"I.3.M.@X#.n S s n n 3 5.L 4 $.$.f , d n z a 7 z B i f d S a g S S D B D q.q.U.#Xq.h.v.C.m.P G.VXuXR.J 8 ,.B.: p.eXt.t.B.N :.%.*.",
"M.Z z s n D _ V g s &.N.7 Z *.A s 4 $ p p p p z s d ~ O.B d ~ M.f S 6.l.q._.T.U.m.q.C.K. X X:XVXtX[.pXpX$X1X$Xs.s.,.NXaX{ ).u.O.",
"%.~ Z 4 a 4 Z 4 M >././.i 4 4 4 i , 4 A p i p a s @ C.eXA.+X@XM.m.4.@X;X#XL.P.A. X8X>X XC.K.'.VXpX[.sXvX,X$X3XwX`.p.,X).N.aX!.Z ",
"d v s a 4 s s 7 n (.+X=XK i i i 4 p 7 x.4.f F - 4.F q.:XeX;XI.I.#XY.+X;XL.K.J.K.K.P.U.P.Y.P.#XNXdXiX^.~.<XQ.} t.B.:.) ' ,.B.1X*.",
"~ Z s Z %._ _ Z g L N.M.q.C g g 4 - L m.C.m.m.;.A.Y.Y.R.K.Y.K.L.I.A.c.c.L._.(.(.P.P.P.#XN.x.;.p.'.d.r /  .Y e 6 b e.Z i v p.aX>.",
"M s s ~ ' i n ) h n x.q.S F -.S 4 p A m.K.C.Y.m.j.I.C.j.K. XK.i.4.;._ 4.q.0.i.N.U.P._.U.0.s % 7 ,.2 O 9.p.w k 3 M m V t 4 &.+X,.",
"4 4 s < , > # = h V P A.o.g F S $ p = ;.K.C.R.j.j.S.4.L m.` $.h g p 4 7 4 7 s h N K.;Xi.4 3 + v _ v # N.).# z 3 ,.W $ f 4 5 B.).",
"s 4 i i < 4 # 4 g L ;.q.A C p d $ F g y ;.K.K.j.4.o.y f D F p % 4 @ > u - 4 n 3 4 ,.N.K # # # # p $.) :.7 < o ) B.0 a 4 3 6 { c.",
"= d 5 , + > $ # M _ 6.q.p d t $ % f S = P K.R.m.- % & t $ p F C , a u , 4 + + 7 s s n ` s , # , D p ] N : 3 8./.!.0 z # k 6 W :.",
"d a , 4 @ @ # # S 4.S -.= i $ $ + d V 4 o.w.w.h o.K.% t = = y L n s i + @ , i i 4 4 _ *.n X @ # a , 7 m 3 6 p.).} M M v z # b v ",
"s i z # @ @ # 7 d K C 5.p 4 t @ o S L p P h F * H.T.f + % y y F C i , , u , , , 4 D &.A 6 4 o @ @ > < : } / k :.! v k >._ 4 z v ",
"z i > $ , > @ @ 4 s n g g g , + @ v S 4 6 7 4 * w.W.* * % y % y Z A & + = a 4 # i M V d s n M > X @ 4 3  .e b 8 ) h N v 7 s n 0 ",
"s , @ @ + o @ , s p p 4 4 d u @ O n Z i s n p ;.E.E.W.* * * y y h L % 4 # @ # , d s 4 4 6 g ' _ 4 k ) A [ M } ] M p 2 8 6 M s 6 ",
"d , $ @ $ , u z p = = # = a 4 + O 6 z d i d p w.W.H.E.G . - y y ; h 8 * # # = 4 n 4 4 4 4 3 n M v 6 ] / 3 6 { ] 6 7 r ( t./ b h ",
"z d u u , , i 5 $ % 4 4 4 i , + # 3 4 s 4 4 i h w.W.W.| * * % y ; J 8 % # # p n p 4 4 , - 3 s k # 3 b 0 3 # l ~ v 0 e y.d.d.B.] ",
"u a u u , , , , = # 4 4 , u , o @ p a 4 i # h ; [ H.| G * ; % - - w.a.* . - s n p s < $ # 3 4 3 a 5 z 9 @ @ 1 9 > e Y d.~.`.`.Q ",
"@ u , , @ , , u 4 # = 4 , u @ o @ a d 4 i = J - 8 8 G H ; y & = - P T.I O n h 4 # > # > - = : # o < 3 : @ : X : : : Y d.( r O : ",
"i u , , , , , , 4 $ = , i u $ @ , i i i y p J J h   H w.H y + & ; G w._.8 v h 7 @ 4 < 5 7 v b m ~ ] q w T T Q ( Y  .s.( r r ~.{.",
"$ # , , @ @ , i a i i , , 4 5 f , f 4 4 y K [ s.w.  h I H y y % ; 8 G R.K 4 0 v 6 ! ~ ! m ~ ~ ^ Q { R Q Q.Q.Q.Q.Q.d./ w w ( {.{.",
"$ , , , , 4 , , 4 , , # # # 3 s < 7 , 7 s o 6 _.).N * P ;.H % % 4.P 8 _.N k R ^ E x x l c T c j q c 1 Q ^ ^ e.d.^ w 9 j l E w r ",
", , , # # > # > @ # # : > 3 7 k 6 z Z _ ,   !.1X2X:X. H [ - - y MX1Xy.#X4 5 ~ T w T 9 T T c R l 9 T T R T q T w w < j c c x c c ",
"< 4 , > 4 k k z 0 z k n m W ! ! ~ ! E Z > O $X`.9.a.H 2 . - - 7 _.y.y.H.. & ] l 9 ^  .{ { 9 x l c T R E R T q q R j c l 9 1 j c ",
"n m m m m ! M ! ! W M W M m m x m k c x o X $XwXB.9.:XB.2 ;.= - J H.'.[   & z Z ~ { ^ { Q q 0 k E 1 c R q 9 w q c 9 c c j 9 9 1 ",
"m W W M W W m W b k k l l z 0 0 w 0 m E : X $XfXtXiXtX:XG.].w.y.].[.tX}   & $ &.~ E R q T w q R E c E c c T q c c l 1 9 1 9 w 9 ",
"0 k b 0 b l b E v b b b b b b b z l k b : O ,X2X^._.G.tX2X<X:X2XiXiXdXy.  + + s x k l ^ T ^ T { ^ c R ^ 9 c c l c c c x l 9 q 9 ",
"l l l l l l l l l b m x l k k j x j j m > X J.,XpXfXsXtX^.tXdXsXiXiX3X/   + & 5 E 1 q T ^ ( ( ( ^ ^ ^ ^ ^ c 9 c k j < 5 9 c ^ 8.",
"l l q l b l 0 9 9 q l l l k l l x c m x 3 O N G.vXfXiXtX^.<XsXuX].'.t.2 > & X @ c 1 T T {  .e.( ^ ~ ~ ^ 1 9 c 9 a j 5 c l 9 E ^ ",
"q 0 l l l j j k k k k k k c k c 9 E c x > X 2 } `.~.^.`.~.^.^.'.y.~.] ) z + & o r U  .e.( T Q ^ ( ^ q 1 w j j c j j k c x j l W ",
"j 9 k k j 9 9 9 l j k c c j k j c 9 c c O X * } ^.[.~.<XG.y.].H.y.y.[ A 7 . o o Y  .Q.Q.Y T T ^ R R q w q j j l c j k k j j j j ",
"c j j j 9 9 9 j l j j a j j j a a c x : X O O [ s.| <XiXy.dXsX:X[.<XI H ) N ) O / .. .( Y Y T Q R R w w 9 j j j j k c l 9 9 k k ",
"j j j j 5 j a j c j j j j 1 9 j j j p # - 8 * [ } / pX<X^.yXuX:XtXE.w.a._.:X9XJ / ..( e Y Y Q Y R q w 1 j c c c l l k 9 0 l k j ",
"j j 9 a j j j j j j j k j 1 j j v 7 ' L.R.R.| [ H.y.[.dXtXpXuXtX:XR.R.H.G.a.9./ { ../ U Q U e Q w w 9 j j j j c 5 w 9 w 0 q b b ",
"j j j 9 9 j j j j j j j a 9 a j 0 7 ' J.R.R.| | y.H.| ^.G.y.J.iX<XR.I w.[ } 6 W } / Y U Q q R R 0 9 j j a j j 1 q q q T b q e R ",
"9 a 9 5 5 9 j a k 9 9 9 0 9 9 k 0 b 8 P 9.9./ [ y.y.^.[.s.G.`.tX<Xy.G G G e Q { U Y Y U e b E l j u a j j c l c l w w Q e. ./ Q ",
"< 5 5 1 5 5 k 9 k 9 5 5 9 9 9 k v 0 6 e b H 8 | y.y.tXfX`.pXyX,XG.} / 9.| e { ~ U Y U w w q ^ 9 9 j x x d j l 9 w q ^ e.s.e.Q b "
};
